<svg width="93" height="23" viewBox="0 0 93 23" fill="none" xmlns="http://www.w3.org/2000/svg">
<path d="M91.9525 6.75851C92.9238 6.23244 93.2847 5.01863 92.7586 4.04738C92.2325 3.07613 91.0187 2.71524 90.0475 3.24131L91.9525 6.75851ZM53 12.9996L53.1152 14.9963L53 12.9996ZM0 7.99976L17.6295 22.9174L21.7338 0.190978L0 7.99976ZM91 4.99991C90.0475 3.24131 90.0481 3.24096 90.0487 3.24063C90.0489 3.24056 90.0494 3.24025 90.0497 3.2401C90.0503 3.2398 90.0506 3.23959 90.0508 3.23949C90.0512 3.23927 90.0509 3.23945 90.0499 3.24002C90.0477 3.24115 90.0427 3.24384 90.0347 3.24803C90.0187 3.25641 89.9911 3.27082 89.9516 3.29092C89.8726 3.3311 89.7466 3.394 89.5729 3.47682C89.2254 3.64247 88.6874 3.88783 87.9549 4.19054C86.49 4.79592 84.2465 5.63092 81.193 6.51641C75.087 8.28706 65.7352 10.2616 52.8848 11.0029L53.1152 14.9963C66.2648 14.2377 75.913 12.2123 82.307 10.3581C85.5035 9.43119 87.885 8.54751 89.4826 7.88732C90.2813 7.55725 90.8839 7.2831 91.2943 7.08743C91.4995 6.9896 91.6566 6.91139 91.7662 6.85563C91.821 6.82775 91.8638 6.80548 91.8949 6.78918C91.9104 6.78103 91.9229 6.77437 91.9326 6.76924C91.9374 6.76668 91.9414 6.7645 91.9448 6.76271C91.9464 6.76182 91.9479 6.76102 91.9492 6.76032C91.9498 6.75997 91.9507 6.75952 91.951 6.75934C91.9518 6.75892 91.9525 6.75851 91 4.99991ZM52.8848 11.0029C40.4778 11.7187 27.7983 10.5866 17.9883 9.21763L17.4354 13.1792C27.3833 14.5674 40.3474 15.7329 53.1152 14.9963L52.8848 11.0029Z" fill="white"/>
</svg>
