<svg width="1440" height="929" viewBox="0 0 1440 929" fill="none" xmlns="http://www.w3.org/2000/svg">
<path d="M1808.22 877.728C1697.4 882.886 1585.37 864.025 1482.53 822.212C1430.35 800.997 1380.34 774.294 1333.87 742.444C1291.54 713.425 1249.69 679.233 1222.38 635.151C1198.74 596.988 1187.89 548.465 1203.87 505.153C1211.28 485.085 1224.36 468.101 1241.73 458.095C1255.95 449.905 1275.91 446.158 1291.66 447.885C1301.26 448.939 1308.97 451.028 1315.75 454.223C1323.93 458.085 1330.37 462.644 1334.9 467.873C1346.91 481.748 1350.21 500.535 1347.67 517.328C1341.36 558.886 1311.7 592.121 1275.75 614.201C1195.87 663.251 1092 655.296 1009.81 616.7C898.942 564.631 818.309 467.85 741.979 375.27C702.563 327.468 663.218 279.376 619.187 235.674C577.908 194.709 532.197 158.557 483.154 127.314C388.414 66.9593 280.181 26.3566 169.13 9.46222C-36.8515 -21.8701 -252.554 30.3221 -422.063 151.438C-442.904 166.328 -462.882 182.338 -482.301 199.031C-492.54 207.836 -490.004 225.968 -480.889 234.364C-469.997 244.397 -455.835 241.792 -445.556 232.952C-285.844 95.6052 -66.1964 28.7714 142.842 56.1445C259.066 71.3654 370.667 112.986 468.694 177.221C572.603 245.301 649.08 341.479 727.713 435.833C810.91 535.648 903.782 634.268 1029.47 678.332C1123.8 711.399 1240.35 705.801 1321.72 643.196C1360.65 613.246 1392.58 570.277 1397.48 520.069C1402.57 467.77 1374.55 421.357 1324.47 404.243C1279.02 388.708 1225.61 400.819 1191.18 434.15C1151.9 472.181 1140.47 531.787 1149.76 584.016C1160.03 641.749 1195.19 690.681 1237.55 729.854C1280.74 769.792 1331.38 803.006 1383.13 830.728C1488.35 887.098 1605.32 919.606 1724.35 927.058C1753.15 928.859 1782.01 929.001 1810.84 927.662C1842.97 926.164 1840.45 876.223 1808.21 877.724L1808.22 877.728Z" fill="#00FF0A" fill-opacity="0.2"/>
</svg>
