<svg width="320" height="529" viewBox="0 0 320 529" fill="none" xmlns="http://www.w3.org/2000/svg">
<g filter="url(#filter0_bd_273_16)">
<rect x="4" width="312" height="521" rx="46" fill="#0E0E0E" fill-opacity="0.1" shape-rendering="crispEdges"/>
<rect x="5" y="1" width="310" height="519" rx="45" stroke="url(#paint0_linear_273_16)" stroke-width="2" shape-rendering="crispEdges"/>
</g>
<path d="M69.576 75.288C70.6 75.528 71.392 76.024 71.952 76.776C72.528 77.512 72.816 78.368 72.816 79.344C72.816 80.832 72.32 81.984 71.328 82.8C70.352 83.6 68.944 84 67.104 84H58.2V67.008H66.864C68.592 67.008 69.952 67.384 70.944 68.136C71.936 68.888 72.432 69.984 72.432 71.424C72.432 72.416 72.168 73.256 71.64 73.944C71.128 74.616 70.44 75.064 69.576 75.288ZM63.528 73.632H65.592C66.072 73.632 66.424 73.536 66.648 73.344C66.888 73.152 67.008 72.856 67.008 72.456C67.008 72.04 66.888 71.736 66.648 71.544C66.424 71.336 66.072 71.232 65.592 71.232H63.528V73.632ZM65.952 79.728C66.432 79.728 66.784 79.64 67.008 79.464C67.248 79.272 67.368 78.968 67.368 78.552C67.368 77.736 66.896 77.328 65.952 77.328H63.528V79.728H65.952ZM83.4863 84.168C81.8863 84.168 80.4143 83.792 79.0703 83.04C77.7423 82.288 76.6863 81.248 75.9023 79.92C75.1183 78.592 74.7263 77.096 74.7263 75.432C74.7263 73.768 75.1183 72.272 75.9023 70.944C76.6863 69.616 77.7423 68.584 79.0703 67.848C80.4143 67.096 81.8863 66.72 83.4863 66.72C85.0863 66.72 86.5503 67.096 87.8783 67.848C89.2063 68.584 90.2543 69.616 91.0223 70.944C91.8063 72.272 92.1983 73.768 92.1983 75.432C92.1983 77.096 91.8063 78.592 91.0223 79.92C90.2543 81.248 89.1983 82.288 87.8543 83.04C86.5263 83.792 85.0703 84.168 83.4863 84.168ZM83.4863 79.2C84.5423 79.2 85.3583 78.864 85.9343 78.192C86.5103 77.504 86.7983 76.584 86.7983 75.432C86.7983 74.264 86.5103 73.344 85.9343 72.672C85.3583 71.984 84.5423 71.64 83.4863 71.64C82.4143 71.64 81.5903 71.984 81.0143 72.672C80.4383 73.344 80.1503 74.264 80.1503 75.432C80.1503 76.584 80.4383 77.504 81.0143 78.192C81.5903 78.864 82.4143 79.2 83.4863 79.2ZM103 84.168C101.4 84.168 99.9283 83.792 98.5843 83.04C97.2563 82.288 96.2003 81.248 95.4163 79.92C94.6323 78.592 94.2403 77.096 94.2403 75.432C94.2403 73.768 94.6323 72.272 95.4163 70.944C96.2003 69.616 97.2563 68.584 98.5843 67.848C99.9283 67.096 101.4 66.72 103 66.72C104.6 66.72 106.064 67.096 107.392 67.848C108.72 68.584 109.768 69.616 110.536 70.944C111.32 72.272 111.712 73.768 111.712 75.432C111.712 77.096 111.32 78.592 110.536 79.92C109.768 81.248 108.712 82.288 107.368 83.04C106.04 83.792 104.584 84.168 103 84.168ZM103 79.2C104.056 79.2 104.872 78.864 105.448 78.192C106.024 77.504 106.312 76.584 106.312 75.432C106.312 74.264 106.024 73.344 105.448 72.672C104.872 71.984 104.056 71.64 103 71.64C101.928 71.64 101.104 71.984 100.528 72.672C99.9523 73.344 99.6643 74.264 99.6643 75.432C99.6643 76.584 99.9523 77.504 100.528 78.192C101.104 78.864 101.928 79.2 103 79.2ZM124.506 84L119.562 76.632V84H114.234V67.008H119.562V74.16L124.434 67.008H130.458L124.602 75.144L130.842 84H124.506ZM148.526 81.432H142.862L142.022 84H136.43L142.646 67.008H148.79L154.982 84H149.366L148.526 81.432ZM147.23 77.424L145.694 72.696L144.158 77.424H147.23ZM173.088 84H167.76L162.12 75.456V84H156.792V67.008H162.12L167.76 75.696V67.008H173.088V84ZM69.096 121.432H63.432L62.592 124H57L63.216 107.008H69.36L75.552 124H69.936L69.096 121.432ZM67.8 117.424L66.264 112.696L64.728 117.424H67.8ZM91.2585 112.84C91.2585 113.912 91.0105 114.888 90.5145 115.768C90.0185 116.632 89.2825 117.32 88.3065 117.832C87.3465 118.344 86.1785 118.6 84.8025 118.6H82.6905V124H77.3625V107.008H84.8025C86.8825 107.008 88.4745 107.536 89.5785 108.592C90.6985 109.648 91.2585 111.064 91.2585 112.84ZM84.2025 114.4C85.3065 114.4 85.8585 113.88 85.8585 112.84C85.8585 111.8 85.3065 111.28 84.2025 111.28H82.6905V114.4H84.2025ZM107.444 112.84C107.444 113.912 107.196 114.888 106.7 115.768C106.204 116.632 105.468 117.32 104.492 117.832C103.532 118.344 102.364 118.6 100.988 118.6H98.8764V124H93.5484V107.008H100.988C103.068 107.008 104.66 107.536 105.764 108.592C106.884 109.648 107.444 111.064 107.444 112.84ZM100.388 114.4C101.492 114.4 102.044 113.88 102.044 112.84C102.044 111.8 101.492 111.28 100.388 111.28H98.8764V114.4H100.388ZM118.014 124.168C116.414 124.168 114.942 123.792 113.598 123.04C112.27 122.288 111.214 121.248 110.43 119.92C109.646 118.592 109.254 117.096 109.254 115.432C109.254 113.768 109.646 112.272 110.43 110.944C111.214 109.616 112.27 108.584 113.598 107.848C114.942 107.096 116.414 106.72 118.014 106.72C119.614 106.72 121.078 107.096 122.406 107.848C123.734 108.584 124.782 109.616 125.55 110.944C126.334 112.272 126.726 113.768 126.726 115.432C126.726 117.096 126.334 118.592 125.55 119.92C124.782 121.248 123.726 122.288 122.382 123.04C121.054 123.792 119.598 124.168 118.014 124.168ZM118.014 119.2C119.07 119.2 119.886 118.864 120.462 118.192C121.038 117.504 121.326 116.584 121.326 115.432C121.326 114.264 121.038 113.344 120.462 112.672C119.886 111.984 119.07 111.64 118.014 111.64C116.942 111.64 116.118 111.984 115.542 112.672C114.966 113.344 114.678 114.264 114.678 115.432C114.678 116.584 114.966 117.504 115.542 118.192C116.118 118.864 116.942 119.2 118.014 119.2ZM134.576 107.008V124H129.248V107.008H134.576ZM153.879 124H148.551L142.911 115.456V124H137.583V107.008H142.911L148.551 115.696V107.008H153.879V124ZM177.31 107.008V124H172.006V115.528L169.39 124H164.83L162.214 115.528V124H156.886V107.008H163.414L167.158 117.208L170.806 107.008H177.31ZM185.642 111.256V113.344H190.922V117.352H185.642V119.752H191.642V124H180.314V107.008H191.642V111.256H185.642ZM210.546 124H205.218L199.578 115.456V124H194.25V107.008H199.578L205.218 115.696V107.008H210.546V124ZM226.897 107.008V111.232H222.385V124H217.057V111.232H212.593V107.008H226.897ZM74.496 164H69.168L63.528 155.456V164H58.2V147.008H63.528L69.168 155.696V147.008H74.496V164ZM85.7831 164.168C84.1831 164.168 82.7111 163.792 81.3671 163.04C80.0391 162.288 78.9831 161.248 78.1991 159.92C77.4151 158.592 77.0231 157.096 77.0231 155.432C77.0231 153.768 77.4151 152.272 78.1991 150.944C78.9831 149.616 80.0391 148.584 81.3671 147.848C82.7111 147.096 84.1831 146.72 85.7831 146.72C87.3831 146.72 88.8471 147.096 90.1751 147.848C91.5031 148.584 92.5511 149.616 93.3191 150.944C94.1031 152.272 94.4951 153.768 94.4951 155.432C94.4951 157.096 94.1031 158.592 93.3191 159.92C92.5511 161.248 91.4951 162.288 90.1511 163.04C88.8231 163.792 87.3671 164.168 85.7831 164.168ZM85.7831 159.2C86.8391 159.2 87.6551 158.864 88.2311 158.192C88.8071 157.504 89.0951 156.584 89.0951 155.432C89.0951 154.264 88.8071 153.344 88.2311 152.672C87.6551 151.984 86.8391 151.64 85.7831 151.64C84.7111 151.64 83.8871 151.984 83.3111 152.672C82.7351 153.344 82.4471 154.264 82.4471 155.432C82.4471 156.584 82.7351 157.504 83.3111 158.192C83.8871 158.864 84.7111 159.2 85.7831 159.2ZM121.497 147.008L117.609 164H110.985L109.017 154.352L107.049 164H100.425L96.5372 147.008H102.273L103.809 157.712L106.113 147.008H111.921L114.225 157.712L115.761 147.008H121.497ZM126.648 164.192C125.72 164.192 124.976 163.944 124.416 163.448C123.856 162.952 123.576 162.328 123.576 161.576C123.576 160.808 123.856 160.176 124.416 159.68C124.976 159.168 125.72 158.912 126.648 158.912C127.56 158.912 128.296 159.168 128.856 159.68C129.416 160.176 129.696 160.808 129.696 161.576C129.696 162.328 129.416 162.952 128.856 163.448C128.296 163.944 127.56 164.192 126.648 164.192ZM64.848 204.168C62.816 204.168 61.136 203.696 59.808 202.752C58.496 201.792 57.784 200.392 57.672 198.552H63.336C63.416 199.528 63.848 200.016 64.632 200.016C64.92 200.016 65.16 199.952 65.352 199.824C65.56 199.68 65.664 199.464 65.664 199.176C65.664 198.776 65.448 198.456 65.016 198.216C64.584 197.96 63.912 197.672 63 197.352C61.912 196.968 61.008 196.592 60.288 196.224C59.584 195.856 58.976 195.32 58.464 194.616C57.952 193.912 57.704 193.008 57.72 191.904C57.72 190.8 58 189.864 58.56 189.096C59.136 188.312 59.912 187.72 60.888 187.32C61.88 186.92 62.992 186.72 64.224 186.72C66.304 186.72 67.952 187.2 69.168 188.16C70.4 189.12 71.048 190.472 71.112 192.216H65.376C65.36 191.736 65.24 191.392 65.016 191.184C64.792 190.976 64.52 190.872 64.2 190.872C63.976 190.872 63.792 190.952 63.648 191.112C63.504 191.256 63.432 191.464 63.432 191.736C63.432 192.12 63.64 192.44 64.056 192.696C64.488 192.936 65.168 193.232 66.096 193.584C67.168 193.984 68.048 194.368 68.736 194.736C69.44 195.104 70.048 195.616 70.56 196.272C71.072 196.928 71.328 197.752 71.328 198.744C71.328 199.784 71.072 200.72 70.56 201.552C70.048 202.368 69.304 203.008 68.328 203.472C67.352 203.936 66.192 204.168 64.848 204.168ZM79.128 199.968H84.264V204H73.8V187.008H79.128V199.968ZM94.8206 204.168C93.2206 204.168 91.7486 203.792 90.4046 203.04C89.0766 202.288 88.0206 201.248 87.2366 199.92C86.4526 198.592 86.0606 197.096 86.0606 195.432C86.0606 193.768 86.4526 192.272 87.2366 190.944C88.0206 189.616 89.0766 188.584 90.4046 187.848C91.7486 187.096 93.2206 186.72 94.8206 186.72C96.4206 186.72 97.8846 187.096 99.2126 187.848C100.541 188.584 101.589 189.616 102.357 190.944C103.141 192.272 103.533 193.768 103.533 195.432C103.533 197.096 103.141 198.592 102.357 199.92C101.589 201.248 100.533 202.288 99.1886 203.04C97.8606 203.792 96.4046 204.168 94.8206 204.168ZM94.8206 199.2C95.8766 199.2 96.6926 198.864 97.2686 198.192C97.8446 197.504 98.1326 196.584 98.1326 195.432C98.1326 194.264 97.8446 193.344 97.2686 192.672C96.6926 191.984 95.8766 191.64 94.8206 191.64C93.7486 191.64 92.9246 191.984 92.3486 192.672C91.7726 193.344 91.4846 194.264 91.4846 195.432C91.4846 196.584 91.7726 197.504 92.3486 198.192C92.9246 198.864 93.7486 199.2 94.8206 199.2ZM119.399 187.008V191.232H114.887V204H109.559V191.232H105.095V187.008H119.399ZM134.402 204.168C132.802 204.168 131.33 203.792 129.986 203.04C128.658 202.288 127.602 201.248 126.818 199.92C126.034 198.592 125.642 197.096 125.642 195.432C125.642 193.768 126.034 192.272 126.818 190.944C127.602 189.616 128.658 188.584 129.986 187.848C131.33 187.096 132.802 186.72 134.402 186.72C136.002 186.72 137.466 187.096 138.794 187.848C140.122 188.584 141.17 189.616 141.938 190.944C142.722 192.272 143.114 193.768 143.114 195.432C143.114 197.096 142.722 198.592 141.938 199.92C141.17 201.248 140.114 202.288 138.77 203.04C137.442 203.792 135.986 204.168 134.402 204.168ZM134.402 199.2C135.458 199.2 136.274 198.864 136.85 198.192C137.426 197.504 137.714 196.584 137.714 195.432C137.714 194.264 137.426 193.344 136.85 192.672C136.274 191.984 135.458 191.64 134.402 191.64C133.33 191.64 132.506 191.984 131.93 192.672C131.354 193.344 131.066 194.264 131.066 195.432C131.066 196.584 131.354 197.504 131.93 198.192C132.506 198.864 133.33 199.2 134.402 199.2ZM161.932 204H156.604L150.964 195.456V204H145.636V187.008H150.964L156.604 195.696V187.008H161.932V204ZM170.267 199.968H175.403V204H164.939V187.008H170.267V199.968ZM194 187.008L187.904 198.84V204H182.576V198.84L176.48 187.008H182.576L185.288 193.032L188 187.008H194ZM202.987 185.88L202.363 197.256H197.803L197.179 185.88H202.987ZM200.083 204.192C199.155 204.192 198.411 203.944 197.851 203.448C197.291 202.952 197.011 202.328 197.011 201.576C197.011 200.808 197.291 200.176 197.851 199.68C198.411 199.168 199.155 198.912 200.083 198.912C200.995 198.912 201.731 199.168 202.291 199.68C202.851 200.176 203.131 200.808 203.131 201.576C203.131 202.328 202.851 202.952 202.291 203.448C201.731 203.944 200.995 204.192 200.083 204.192Z" fill="#FAFAF9"/>
<path d="M142.278 159.968H147.414V164H136.95V147.008H142.278V159.968ZM155.019 147.008V164H149.691V147.008H155.019ZM178.449 147.008V164H173.145V155.528L170.529 164H165.969L163.353 155.528V164H158.025V147.008H164.553L168.297 157.208L171.945 147.008H178.449ZM186.781 147.008V164H181.453V147.008H186.781ZM203.131 147.008V151.232H198.619V164H193.291V151.232H188.827V147.008H203.131ZM210.505 151.256V153.344H215.785V157.352H210.505V159.752H216.505V164H205.177V147.008H216.505V151.256H210.505ZM226.193 147.008C227.969 147.008 229.521 147.368 230.849 148.088C232.193 148.808 233.225 149.808 233.945 151.088C234.665 152.368 235.025 153.824 235.025 155.456C235.025 157.072 234.665 158.528 233.945 159.824C233.225 161.12 232.193 162.144 230.849 162.896C229.521 163.632 227.969 164 226.193 164H219.113V147.008H226.193ZM225.713 159.248C226.913 159.248 227.865 158.92 228.569 158.264C229.273 157.608 229.625 156.672 229.625 155.456C229.625 154.24 229.273 153.304 228.569 152.648C227.865 151.992 226.913 151.664 225.713 151.664H224.441V159.248H225.713Z" fill="#24FF00"/>
<defs>
<filter id="filter0_bd_273_16" x="-51" y="-55" width="422" height="631" filterUnits="userSpaceOnUse" color-interpolation-filters="sRGB">
<feFlood flood-opacity="0" result="BackgroundImageFix"/>
<feGaussianBlur in="BackgroundImageFix" stdDeviation="27.5"/>
<feComposite in2="SourceAlpha" operator="in" result="effect1_backgroundBlur_273_16"/>
<feColorMatrix in="SourceAlpha" type="matrix" values="0 0 0 0 0 0 0 0 0 0 0 0 0 0 0 0 0 0 127 0" result="hardAlpha"/>
<feOffset dy="4"/>
<feGaussianBlur stdDeviation="2"/>
<feComposite in2="hardAlpha" operator="out"/>
<feColorMatrix type="matrix" values="0 0 0 0 0 0 0 0 0 0 0 0 0 0 0 0 0 0 0.25 0"/>
<feBlend mode="normal" in2="effect1_backgroundBlur_273_16" result="effect2_dropShadow_273_16"/>
<feBlend mode="normal" in="SourceGraphic" in2="effect2_dropShadow_273_16" result="shape"/>
</filter>
<linearGradient id="paint0_linear_273_16" x1="-16.7705" y1="-72.0409" x2="360.666" y2="114.091" gradientUnits="userSpaceOnUse">
<stop stop-color="#00FF38"/>
<stop offset="1" stop-color="#00FF38" stop-opacity="0"/>
</linearGradient>
</defs>
</svg>
