<svg width="272" height="48" viewBox="0 0 272 48" fill="none" xmlns="http://www.w3.org/2000/svg">
<path d="M23.9208 25.44C23.9208 28.16 22.6248 30.496 20.0328 32.448C17.4408 34.4 14.4808 35.376 11.1528 35.376C7.82475 35.376 5.13675 34.56 3.08875 32.928C1.07275 31.264 0.06475 29.552 0.06475 27.792C0.06475 26.032 0.56075 25.152 1.55275 25.152C2.32075 25.152 3.12075 25.536 3.95275 26.304C4.78475 27.072 5.71275 27.84 6.73675 28.608C7.79275 29.376 8.97675 29.76 10.2888 29.76C11.6008 29.76 13.0888 29.216 14.7528 28.128C16.4168 27.04 17.2488 26.128 17.2488 25.392C17.2488 24.656 16.3368 23.424 14.5128 21.696C12.7208 19.968 10.9128 18.192 9.08875 16.368C7.29675 14.512 6.40075 13.088 6.40075 12.096C6.40075 11.072 6.57675 9.968 6.92875 8.784C7.31275 7.6 7.77675 6.784 8.32075 6.336C10.0488 4.64 12.2728 3.184 14.9928 1.968C17.7448 0.719998 20.1608 0.0959988 22.2408 0.0959988C23.4568 0.0959988 24.4648 0.623999 25.2648 1.68C26.0648 2.704 26.4648 3.776 26.4648 4.896C26.4648 5.344 26.0968 5.712 25.3608 6C24.6568 6.256 23.6168 6.528 22.2408 6.816C20.8968 7.104 19.5208 7.52 18.1128 8.064C14.8488 9.28 13.2168 10.304 13.2168 11.136C13.2168 11.52 13.7768 12.224 14.8968 13.248C16.0168 14.24 17.2328 15.296 18.5448 16.416C19.8888 17.504 21.1208 18.896 22.2408 20.592C23.3608 22.256 23.9208 23.872 23.9208 25.44ZM56.4531 10.656C57.3491 10.656 58.3251 10.96 59.3811 11.568C60.4691 12.176 61.0131 12.816 61.0131 13.488C61.0131 14.16 60.4691 16.432 59.3811 20.304C58.2931 24.176 56.5811 27.664 54.2451 30.768C51.9411 33.84 50.2291 35.376 49.1091 35.376C48.6611 35.376 47.9891 35.056 47.0931 34.416C46.1971 33.776 45.5571 33.056 45.1731 32.256C44.5011 30.944 44.1651 27.104 44.1651 20.736C42.7891 25.216 41.2211 28.784 39.4611 31.44C37.7011 34.064 36.2771 35.376 35.1891 35.376C34.7091 35.376 34.0051 35.056 33.0771 34.416C32.1811 33.776 31.6051 33.136 31.3491 32.496C30.6451 30.768 29.9731 27.472 29.3331 22.608C28.6931 17.744 28.3731 14.416 28.3731 12.624C28.3731 11.312 28.8211 10.656 29.7171 10.656C30.9331 10.656 32.1811 11.392 33.4611 12.864C34.7411 14.336 35.3811 15.488 35.3811 16.32C35.3811 20.96 35.4291 24.656 35.5251 27.408C36.8051 25.456 37.9571 23.024 38.9811 20.112C40.0371 17.2 40.8851 14.896 41.5251 13.2C42.1651 11.504 42.8371 10.656 43.5411 10.656C44.9491 10.656 46.3411 11.344 47.7171 12.72C49.0931 14.064 49.7811 15.44 49.7811 16.848C49.7811 17.488 49.6691 18.816 49.4451 20.832C49.2531 22.848 49.1571 24.368 49.1571 25.392C49.1571 26.416 49.2211 27.264 49.3491 27.936C50.4051 26.88 51.3171 25.328 52.0851 23.28C52.8851 21.232 53.4611 19.296 53.8131 17.472C54.7091 12.928 55.5891 10.656 56.4531 10.656ZM66.4353 4.656C66.4353 3.824 66.8033 2.976 67.5393 2.112C68.3073 1.216 69.0433 0.767999 69.7473 0.767999C70.4833 0.767999 71.3473 1.632 72.3393 3.36C73.3313 5.088 73.8273 6.352 73.8273 7.152C73.8273 7.92 73.5713 8.512 73.0593 8.928C72.5473 9.344 72.0193 9.552 71.4753 9.552C70.5473 9.552 69.4753 8.944 68.2593 7.728C67.0433 6.512 66.4353 5.488 66.4353 4.656ZM67.1553 10.656C68.2753 10.656 69.2673 11.296 70.1313 12.576C71.0273 13.856 71.4753 15.088 71.4753 16.272C71.4753 16.88 70.9153 19.072 69.7953 22.848C68.7073 26.592 67.6193 30.144 66.5312 33.504C66.1473 34.752 65.3633 35.376 64.1793 35.376C63.4753 35.376 62.8513 35.12 62.3073 34.608C61.7953 34.064 61.5393 33.376 61.5393 32.544C61.5393 31.68 61.9393 29.568 62.7393 26.208C63.5713 22.816 64.1953 19.936 64.6113 17.568C65.0593 15.168 65.4593 13.424 65.8113 12.336C66.1953 11.216 66.6433 10.656 67.1553 10.656ZM91.624 10.704C92.808 10.704 94.072 11.76 95.416 13.872C96.792 15.984 97.48 18.096 97.48 20.208C97.48 21.488 96.936 23.008 95.848 24.768C94.76 26.528 93.384 28.192 91.72 29.76C90.088 31.296 88.184 32.608 86.008 33.696C83.864 34.784 81.816 35.328 79.864 35.328H79.288C77.272 43.712 75.848 47.904 75.016 47.904C74.344 47.904 73.64 47.344 72.904 46.224C72.136 45.104 71.752 44.176 71.752 43.44C71.752 42.704 72.216 40.448 73.144 36.672C75.896 25.472 77.272 17.024 77.272 11.328C77.272 10.368 77.736 9.888 78.664 9.888C79.432 9.888 80.408 10.32 81.592 11.184C82.776 12.048 83.512 13.168 83.8 14.544C86.52 11.984 89.128 10.704 91.624 10.704ZM80.776 29.616C83.272 29.136 85.624 27.76 87.832 25.488C90.072 23.216 91.192 21.248 91.192 19.584C91.192 17.92 90.728 17.088 89.8 17.088C88.456 17.088 87.032 17.856 85.528 19.392C84.92 20.032 84.248 20.976 83.512 22.224C82.776 23.472 82.136 24.928 81.592 26.592L80.776 29.616ZM121.532 19.632C121.532 21.2 120.46 22.608 118.316 23.856C116.204 25.104 114.028 25.728 111.788 25.728C109.548 25.728 107.708 25.568 106.268 25.248C105.98 26.112 105.836 26.976 105.836 27.84C105.836 28.704 105.98 29.328 106.268 29.712C106.556 30.064 107.276 30.24 108.428 30.24C110.828 30.24 112.876 30.016 114.572 29.568C116.3 29.12 117.196 28.896 117.26 28.896C118.572 28.896 119.228 29.328 119.228 30.192C119.228 31.44 118.188 32.624 116.108 33.744C114.06 34.864 111.676 35.424 108.956 35.424C106.268 35.424 104.108 34.576 102.476 32.88C100.844 31.184 100.028 29.184 100.028 26.88C100.028 24.544 100.7 22.112 102.044 19.584C103.42 17.056 105.132 14.944 107.18 13.248C109.228 11.52 111.26 10.656 113.276 10.656C115.324 10.656 117.212 11.664 118.94 13.68C120.668 15.664 121.532 17.648 121.532 19.632ZM115.964 18.864C115.964 18.544 115.628 18.08 114.956 17.472C114.284 16.864 113.644 16.56 113.036 16.56C112.46 16.56 111.708 16.992 110.78 17.856C109.852 18.688 108.972 19.776 108.14 21.12C108.428 21.152 108.844 21.168 109.388 21.168C113.772 21.168 115.964 20.4 115.964 18.864ZM154.366 16.368C154.11 17.232 153.726 18.448 153.214 20.016C152.734 21.552 152.126 23.488 151.39 25.824C150.686 28.16 150.334 29.408 150.334 29.568C150.334 29.696 150.59 29.76 151.102 29.76C151.646 29.76 152.91 29.408 154.894 28.704C156.878 27.968 158.046 27.6 158.398 27.6C159.198 27.6 159.598 28.144 159.598 29.232C159.598 30.32 158.526 31.632 156.382 33.168C154.238 34.672 151.998 35.424 149.662 35.424C148.638 35.424 147.422 34.864 146.014 33.744C144.606 32.624 143.902 31.488 143.902 30.336C143.902 29.376 144.382 27.36 145.342 24.288C146.334 21.184 147.006 19.056 147.358 17.904C146.11 18.256 145.166 18.432 144.526 18.432C143.886 18.432 143.214 18 142.51 17.136C141.806 16.24 141.454 15.392 141.454 14.592C141.454 13.568 143.934 12.704 148.894 12C149.502 9.024 149.806 6.448 149.806 4.272C149.806 3.312 150.286 2.832 151.246 2.832C152.078 2.832 153.134 3.344 154.414 4.368C155.726 5.36 156.382 6.352 156.382 7.344C156.382 8.304 156.174 9.664 155.758 11.424C157.294 11.36 158.462 11.328 159.262 11.328C161.662 11.328 162.862 11.872 162.862 12.96C162.862 13.664 162.158 14.272 160.75 14.784C159.374 15.264 157.246 15.792 154.366 16.368ZM170.359 30.528C172.087 29.76 173.591 28.208 174.871 25.872C176.151 23.536 176.791 21.344 176.791 19.296C176.791 17.248 176.503 15.84 175.927 15.072C174.551 15.872 173.175 17.552 171.799 20.112C170.455 22.672 169.783 24.928 169.783 26.88C169.783 28.8 169.975 30.016 170.359 30.528ZM163.351 27.36C163.351 23.36 164.583 19.568 167.047 15.984C169.543 12.4 172.007 10.608 174.439 10.608C176.871 10.608 178.919 11.472 180.583 13.2C182.247 14.896 183.079 16.96 183.079 19.392C183.079 21.792 182.503 24.24 181.351 26.736C180.199 29.232 178.583 31.312 176.503 32.976C174.423 34.608 172.199 35.424 169.831 35.424C168.071 35.424 166.551 34.64 165.271 33.072C163.991 31.504 163.351 29.6 163.351 27.36ZM219.262 10.704C220.478 10.704 221.678 11.424 222.862 12.864C224.046 14.304 224.638 15.6 224.638 16.752C224.638 17.52 224.302 17.904 223.63 17.904C223.246 17.904 222.686 17.76 221.95 17.472C221.214 17.152 220.462 16.992 219.694 16.992C218.958 16.992 217.854 17.248 216.382 17.76C214.942 18.272 214.222 18.944 214.222 19.776C214.222 20.096 214.654 20.56 215.518 21.168C216.382 21.776 217.326 22.4 218.35 23.04C219.374 23.68 220.318 24.576 221.182 25.728C222.046 26.848 222.478 28.08 222.478 29.424C222.478 30.736 221.502 32.064 219.55 33.408C217.63 34.752 215.358 35.424 212.734 35.424C210.142 35.424 207.918 34.832 206.062 33.648C204.206 32.464 203.278 31.248 203.278 30C203.278 28.752 203.79 28.128 204.814 28.128C205.23 28.128 205.726 28.288 206.302 28.608C207.902 29.536 209.886 30 212.254 30C214.654 30 215.854 29.68 215.854 29.04C215.854 28.4 215.39 27.696 214.462 26.928C213.566 26.128 212.574 25.392 211.486 24.72C210.43 24.048 209.438 23.232 208.51 22.272C207.614 21.28 207.166 20.32 207.166 19.392C207.166 17.664 208.734 15.792 211.87 13.776C215.006 11.728 217.47 10.704 219.262 10.704ZM247.86 19.632C247.86 21.2 246.788 22.608 244.644 23.856C242.532 25.104 240.356 25.728 238.116 25.728C235.876 25.728 234.036 25.568 232.596 25.248C232.308 26.112 232.164 26.976 232.164 27.84C232.164 28.704 232.308 29.328 232.596 29.712C232.884 30.064 233.604 30.24 234.756 30.24C237.156 30.24 239.204 30.016 240.9 29.568C242.628 29.12 243.524 28.896 243.588 28.896C244.9 28.896 245.556 29.328 245.556 30.192C245.556 31.44 244.516 32.624 242.436 33.744C240.388 34.864 238.004 35.424 235.284 35.424C232.596 35.424 230.436 34.576 228.804 32.88C227.172 31.184 226.356 29.184 226.356 26.88C226.356 24.544 227.028 22.112 228.372 19.584C229.748 17.056 231.46 14.944 233.508 13.248C235.556 11.52 237.588 10.656 239.604 10.656C241.652 10.656 243.54 11.664 245.268 13.68C246.996 15.664 247.86 17.648 247.86 19.632ZM242.292 18.864C242.292 18.544 241.956 18.08 241.284 17.472C240.612 16.864 239.972 16.56 239.364 16.56C238.788 16.56 238.036 16.992 237.108 17.856C236.18 18.688 235.3 19.776 234.468 21.12C234.756 21.152 235.172 21.168 235.716 21.168C240.1 21.168 242.292 20.4 242.292 18.864ZM271.298 19.632C271.298 21.2 270.226 22.608 268.082 23.856C265.97 25.104 263.794 25.728 261.554 25.728C259.314 25.728 257.474 25.568 256.034 25.248C255.746 26.112 255.602 26.976 255.602 27.84C255.602 28.704 255.746 29.328 256.034 29.712C256.322 30.064 257.042 30.24 258.194 30.24C260.594 30.24 262.642 30.016 264.338 29.568C266.066 29.12 266.962 28.896 267.026 28.896C268.338 28.896 268.994 29.328 268.994 30.192C268.994 31.44 267.954 32.624 265.874 33.744C263.826 34.864 261.442 35.424 258.722 35.424C256.034 35.424 253.874 34.576 252.242 32.88C250.61 31.184 249.794 29.184 249.794 26.88C249.794 24.544 250.466 22.112 251.81 19.584C253.186 17.056 254.898 14.944 256.946 13.248C258.994 11.52 261.026 10.656 263.042 10.656C265.09 10.656 266.978 11.664 268.706 13.68C270.434 15.664 271.298 17.648 271.298 19.632ZM265.73 18.864C265.73 18.544 265.394 18.08 264.722 17.472C264.05 16.864 263.41 16.56 262.802 16.56C262.226 16.56 261.474 16.992 260.546 17.856C259.618 18.688 258.738 19.776 257.906 21.12C258.194 21.152 258.61 21.168 259.154 21.168C263.538 21.168 265.73 20.4 265.73 18.864Z" fill="white"/>
</svg>
