<svg width="563" height="1091" viewBox="0 0 563 1091" fill="none" xmlns="http://www.w3.org/2000/svg">
<path d="M-84.0502 25.0168C-93.6802 104.007 -63.5403 185.477 -10.2202 243.577C43.0998 301.677 124.56 333.597 204.83 327.587C245.63 324.537 285.4 313.447 321.44 293.947C339.14 284.377 355.71 272.517 370.77 259.187C388.59 243.417 404.05 224.437 411.9 201.727C420.59 176.577 414.75 150.047 397.8 129.997C383.24 112.777 359.45 102.967 337.15 102.747C289.42 102.267 251.11 141.957 238.22 185.247C225.86 226.787 235.72 271.397 254.7 309.247C273.68 347.097 304.84 378.457 338.64 404.747C356.97 419.007 375.91 432.407 394.79 445.917C403.73 452.307 412.63 458.757 421.37 465.407C422.31 466.117 423.29 466.817 424.2 467.567C419.77 463.907 422.36 466.137 423.36 466.927C425.68 468.767 428.02 470.597 430.32 472.457C434.47 475.807 438.56 479.227 442.58 482.717C450.66 489.727 458.47 497.047 465.74 504.907C468.87 508.297 471.91 511.777 474.84 515.337C475.96 516.697 480.54 523.197 476.53 517.327C478.07 519.577 479.81 521.707 481.39 523.927C487.23 532.147 492.54 540.747 497.21 549.687C498.34 551.847 499.43 554.017 500.47 556.217C500.93 557.187 501.39 558.167 501.84 559.147L502.5 560.617C503.36 562.597 503.37 562.587 502.52 560.587L501.89 559.077C502.2 559.817 502.5 560.557 502.8 561.307C503.3 562.547 503.78 563.787 504.25 565.037C505.18 567.527 506.06 570.027 506.88 572.557C508.34 577.057 509.61 581.617 510.67 586.227C511.14 588.257 511.56 590.297 511.94 592.347C512.18 593.617 512.39 594.897 512.59 596.177C513.5 601.977 512.31 593.137 512.52 595.667C512.89 600.027 513.28 604.347 513.32 608.717C513.35 611.267 513.29 613.827 513.16 616.377C513.04 618.697 512.19 621.747 512.5 624.007C512.44 623.587 513.51 617.657 512.75 621.917C512.57 622.927 512.41 623.937 512.22 624.947C511.74 627.477 511.17 629.987 510.52 632.467C509.99 634.477 509.41 636.467 508.77 638.437C508.25 640.037 505.67 644.437 506.07 645.817C505.51 643.877 508.19 641.017 506.41 644.837C505.88 645.977 505.33 647.107 504.76 648.227C503.86 650.007 502.91 651.757 501.91 653.487C499.56 657.557 496.91 661.397 494.17 665.207C492.16 667.997 498.25 660.317 494.91 664.207C494.27 664.947 493.66 665.717 493.02 666.467C491.58 668.147 490.1 669.787 488.58 671.397C485.36 674.807 481.97 678.047 478.43 681.137C476.74 682.607 475.03 684.047 473.28 685.447C471.3 687.037 469.49 686.837 474.2 684.767C473.44 685.097 472.4 686.117 471.78 686.567C467.9 689.397 463.92 692.087 459.85 694.637C451.8 699.697 443.44 704.237 434.91 708.427C430.72 710.487 426.49 712.457 422.23 714.357C420.33 715.197 418.43 716.027 416.52 716.847C412.61 718.547 417.75 716.267 418.2 716.147C416.74 716.537 415.3 717.347 413.89 717.927C373.49 734.397 331.89 748.257 290.61 762.337C247.95 776.897 205.12 790.957 162.3 805.057C76.5497 833.297 -9.23026 861.657 -93.4203 894.327C-178.13 927.207 -261.49 964.227 -340.38 1009.47C-359.41 1020.38 -378.16 1031.77 -396.6 1043.64C-407.59 1050.71 -413.1 1066.16 -405.57 1077.84C-398.49 1088.82 -383.13 1094.38 -371.37 1086.81C-297.93 1039.55 -219.67 1000.52 -139.36 966.407C-135.81 964.897 -145.02 968.777 -139.45 966.447C-138.33 965.977 -137.21 965.507 -136.08 965.037C-133.83 964.097 -131.59 963.167 -129.34 962.237C-124 960.027 -118.64 957.837 -113.28 955.667C-103.11 951.547 -92.9203 947.507 -82.7003 943.527C-62.5103 935.667 -42.2202 928.057 -21.8602 920.637C19.5598 905.547 61.2698 891.257 103.07 877.267C186.51 849.357 270.37 822.687 353.33 793.377C392.12 779.677 431.94 766.637 468.41 747.367C502.67 729.267 535.4 702.907 551.11 666.527C586.96 583.507 535.82 495.897 472.47 442.727C454.93 428.007 436.41 414.467 417.78 401.167C409.07 394.947 400.34 388.777 391.68 382.497C387.6 379.537 383.53 376.557 379.48 373.537C377.34 371.937 375.22 370.327 373.09 368.717C372 367.887 369.82 365.657 373.92 369.377C372.63 368.207 371.09 367.177 369.72 366.087C353.49 353.257 337.69 339.517 324.09 323.877C322.71 322.287 321.34 320.667 320.01 319.037C319.34 318.217 318.68 317.387 318.01 316.567C315.07 312.967 319.06 317.757 318.98 317.857C319.19 317.607 310.9 306.517 310.2 305.467C304.92 297.447 300.17 289.077 296.04 280.407C295.02 278.277 294.19 275.967 293.07 273.887C293.31 274.337 295.32 279.457 293.75 275.467C293.36 274.487 292.97 273.507 292.59 272.527C290.81 267.887 289.21 263.167 287.82 258.397C286.59 254.177 285.53 249.907 284.65 245.607C284.19 243.347 283.78 241.077 283.42 238.807C283.26 237.787 282.61 234.337 283.33 238.347C284.14 242.807 283.27 237.327 283.18 236.377C282.79 232.117 282.6 227.837 282.63 223.567C282.66 219.297 283.69 214.497 283.47 210.137C283.78 216.137 282.92 214.017 283.32 211.617C283.48 210.637 283.66 209.657 283.85 208.687C284.28 206.487 284.77 204.307 285.33 202.137C285.83 200.207 286.39 198.287 287 196.387C287.65 194.377 289.44 191.387 289.56 189.307C289.32 193.547 287.84 193.237 289.15 190.397C289.58 189.467 290.02 188.557 290.48 187.637C291.52 185.567 292.62 183.527 293.79 181.527C294.84 179.737 295.95 177.977 297.12 176.267C297.71 175.407 298.33 174.577 298.92 173.717C301.87 169.447 295.7 177.457 298.87 173.857C302.04 170.257 305.17 166.917 308.73 163.827C309.46 163.197 310.51 162.537 311.12 161.827C310.78 162.227 306.32 165.287 309.77 162.907C311.9 161.447 314.03 159.997 316.27 158.697C318.28 157.537 320.36 156.557 322.42 155.497C325.32 154.007 317.61 157.267 320.69 156.217C321.9 155.807 323.09 155.327 324.3 154.937C326.25 154.307 328.22 153.767 330.22 153.327C331.22 153.107 332.23 152.937 333.24 152.727C338.55 151.627 327.28 153.077 332.73 152.877C334.65 152.807 336.55 152.707 338.47 152.777C339.67 152.817 340.86 152.957 342.06 153.027C345.31 153.237 336.53 152.007 339.7 152.737C341.82 153.227 343.93 153.617 346.02 154.237C346.94 154.507 347.86 154.807 348.77 155.127C351.13 155.957 353.22 158.007 348.15 154.777C349.75 155.797 351.61 156.487 353.25 157.447C354.12 157.957 360.02 162.207 356.65 159.507C353.28 156.807 358.63 161.387 359.47 162.227C360.14 162.897 360.78 163.577 361.41 164.277C361.88 164.797 362.34 165.337 362.78 165.887C363.98 167.357 363.39 166.597 361.01 163.617C361.33 165.147 363.2 166.937 363.97 168.377C364.25 168.897 364.76 170.387 365.23 170.887C362.47 167.947 363.48 166.367 364.52 169.497C364.8 170.357 365.65 175.667 366.12 175.957C365.61 175.647 365.81 169.667 365.79 174.237C365.79 175.867 365.9 177.487 365.83 179.127C365.79 180.097 365.47 181.457 365.59 182.367C365.51 181.727 366.75 176.327 365.74 180.537C365.17 182.937 364.62 185.297 363.83 187.647C363.48 188.697 363.07 189.717 362.71 190.757C361.55 194.127 365.58 185.257 362.9 190.137C361.54 192.617 360.31 195.137 358.83 197.567C357.64 199.517 356.37 201.427 355.05 203.297C354.53 204.027 353.74 205.437 353.01 206.087C356.75 202.767 354.83 203.817 353.71 205.097C350.13 209.197 346.56 213.247 342.65 217.037C339.53 220.067 336.3 223.007 333.01 225.847C331.28 227.337 329.52 228.807 327.74 230.247C326.82 230.987 325.49 231.717 324.76 232.627C326.02 231.067 328.75 229.587 325.58 231.957C318.26 237.427 310.63 242.467 302.73 247.057C294.83 251.647 286.68 255.807 278.32 259.497C277.41 259.897 274.19 261.127 277.81 259.747C281.93 258.177 277.17 259.997 276.57 260.237C274.68 260.997 272.79 261.737 270.89 262.447C266.61 264.057 262.28 265.557 257.92 266.937C249.19 269.707 240.31 272.007 231.33 273.847C226.84 274.767 222.33 275.567 217.8 276.257C216.79 276.407 215.78 276.537 214.78 276.697C221.64 275.587 218.45 276.217 216.88 276.397C214.35 276.687 211.82 276.977 209.29 277.207C191.01 278.887 172.7 278.537 154.47 276.487C150.19 276.007 156.19 276.727 156.58 276.797C155.58 276.627 154.57 276.507 153.56 276.357C151.3 276.017 149.05 275.637 146.8 275.237C142.05 274.387 137.33 273.397 132.65 272.267C123.77 270.127 115.01 267.487 106.43 264.337C104.52 263.637 102.62 262.917 100.74 262.167C99.9398 261.847 98.7898 261.207 97.9098 261.027C103.53 262.217 101.06 262.367 98.9698 261.457C94.5497 259.517 90.1898 257.427 85.9098 255.207C77.8698 251.037 70.0797 246.377 62.5898 241.277C59.2598 239.017 56.0298 236.637 52.7898 234.247C48.5898 231.137 56.3798 237.127 53.6797 234.927C52.8997 234.287 52.1097 233.677 51.3297 233.037C49.3797 231.457 47.4597 229.837 45.5598 228.197C38.7198 222.277 32.2097 215.977 26.0497 209.347C23.1397 206.217 20.3098 203.007 17.5598 199.727C16.0998 197.987 14.6698 196.237 13.2598 194.467C12.6598 193.717 10.5198 191.017 12.8898 194.017C15.5398 197.377 12.1598 193.017 11.6497 192.327C6.24976 185.037 1.23975 177.457 -3.37024 169.647C-7.98022 161.837 -11.9602 154.227 -15.6602 146.217C-16.6103 144.157 -17.5202 142.077 -18.4402 140.007C-19.8702 136.787 -16.0403 145.997 -17.9702 141.097C-18.3402 140.157 -18.7303 139.227 -19.1003 138.287C-20.7603 134.067 -22.3203 129.807 -23.7603 125.507C-26.6403 116.917 -29.0702 108.177 -31.0202 99.3368C-32.0002 94.9168 -32.8503 90.4768 -33.5902 86.0068C-33.9202 84.0268 -34.1703 82.0268 -34.5002 80.0468C-33.1703 88.1468 -34.4803 79.8368 -34.6902 77.7168C-36.4803 60.1768 -36.3003 42.5068 -34.1602 25.0168C-33.4402 19.1068 -37.4702 11.3468 -41.4803 7.33677C-45.8203 2.99677 -52.9302 -0.263234 -59.1602 0.0167656C-65.3903 0.296766 -72.3302 2.42677 -76.8402 7.33677C-81.6202 12.5468 -83.3102 18.0468 -84.1602 25.0168H-84.0502Z" fill="#05FF00" fill-opacity="0.2"/>
</svg>
