<svg width="88" height="57" viewBox="0 0 88 57" fill="none" xmlns="http://www.w3.org/2000/svg">
<path d="M43.6611 23.8467C37.076 23.8467 31.7377 18.5085 31.7377 11.9234C31.7377 5.33827 37.076 0 43.6611 0C50.2462 0 55.5845 5.33827 55.5845 11.9234C55.5845 18.5085 50.2462 23.8467 43.6611 23.8467Z" fill="white"/>
<path d="M46.5074 29.6338H40.8153C32.0309 29.6338 24.8993 36.7654 24.8993 45.5498V56.637H62.4233V45.5498C62.4233 36.7654 55.2917 29.6338 46.5074 29.6338Z" fill="white"/>
<path d="M43.6611 23.8467C37.076 23.8467 31.7377 18.5085 31.7377 11.9234C31.7377 5.33827 37.076 0 43.6611 0C50.2462 0 55.5845 5.33827 55.5845 11.9234C55.5845 18.5085 50.2462 23.8467 43.6611 23.8467Z" fill="white"/>
<path d="M46.5074 29.6338H40.8153C32.0309 29.6338 24.8993 36.7654 24.8993 45.5498V56.637H62.4233V45.5498C62.4233 36.7654 55.2917 29.6338 46.5074 29.6338Z" fill="white"/>
<path d="M66.9601 45.5494C66.9601 42.7902 66.4186 40.1113 65.351 37.5869C64.3208 35.1507 62.8465 32.964 60.9697 31.0871C60.7998 30.9172 60.6269 30.7503 60.4517 30.5871C62.1486 29.9702 63.9794 29.6338 65.8895 29.6338H71.5816C80.3719 29.6338 87.4976 36.7594 87.4976 45.5494V56.6367H66.9601V45.5494Z" fill="white"/>
<path d="M15.9157 29.6342H21.6078C23.4704 29.6342 25.258 29.9542 26.9189 30.542C26.727 30.7197 26.5381 30.9016 26.3521 31.0875C24.4753 32.9643 23.001 35.1515 21.9707 37.5873C20.9031 40.1116 20.3617 42.7909 20.3617 45.5498V56.637H-0.00028801V45.5498C-0.00028801 36.7598 7.12534 29.6338 15.9157 29.6338V29.6342Z" fill="white"/>
<path d="M58.7673 18.4668C58.7867 18.4217 58.8073 18.3772 58.8263 18.332C59.6859 16.2999 60.1217 14.1437 60.1217 11.9234C60.1217 9.703 59.6859 7.54686 58.8263 5.5147C58.8073 5.46951 58.7867 5.4247 58.7673 5.37989C60.8988 2.13971 64.5669 0 68.7358 0C75.3207 0 80.6592 5.33844 80.6592 11.9234C80.6592 18.5083 75.3207 23.8467 68.7358 23.8467C64.5673 23.8467 60.8992 21.707 58.7677 18.4665L58.7673 18.4668Z" fill="white"/>
<path d="M18.7621 0C22.8622 0 26.4788 2.06988 28.6245 5.22119C28.5812 5.31865 28.5379 5.41648 28.4961 5.51507C27.6364 7.54723 27.2007 9.70337 27.2007 11.9237C27.2007 14.1441 27.6364 16.3002 28.4961 18.3324C28.5379 18.431 28.5808 18.5284 28.6245 18.6263C26.4788 21.7776 22.8622 23.8475 18.7621 23.8475C12.1768 23.8475 6.8387 18.509 6.8387 11.9241C6.8387 5.33919 12.1771 0 18.7621 0Z" fill="white"/>
</svg>
