<svg width="86" height="50" viewBox="0 0 86 50" fill="none" xmlns="http://www.w3.org/2000/svg">
<path d="M85.9684 50.0002V25.6343H63.7085C71.1276 33.7571 78.5493 41.8773 85.9684 50.0002Z" fill="white"/>
<path d="M67.145 0.000488281H18.8553C8.46065 0.000488281 0.0322266 8.43554 0.0322266 18.8383C0.0322266 29.2438 8.46065 37.6762 18.8553 37.6762H78.0561C82.4263 37.6762 85.9681 34.1316 85.9681 29.758V18.8357C85.9681 8.43554 77.5396 0.000488281 67.145 0.000488281ZM18.7792 24.5632C15.6202 24.5632 13.0589 21.9999 13.0589 18.8383C13.0589 15.6768 15.6202 13.1135 18.7792 13.1135C21.9383 13.1135 24.4996 15.6768 24.4996 18.8383C24.4996 21.9999 21.9383 24.5632 18.7792 24.5632ZM43.0001 24.5632C39.8411 24.5632 37.2798 21.9999 37.2798 18.8383C37.2798 15.6768 39.8411 13.1135 43.0001 13.1135C46.1592 13.1135 48.7205 15.6768 48.7205 18.8383C48.7205 21.9999 46.1592 24.5632 43.0001 24.5632ZM66.39 24.5632C63.231 24.5632 60.6697 21.9999 60.6697 18.8383C60.6697 15.6768 63.231 13.1135 66.39 13.1135C69.549 13.1135 72.1103 15.6768 72.1103 18.8383C72.1103 21.9999 69.549 24.5632 66.39 24.5632Z" fill="white"/>
</svg>
