<svg width="72" height="67" viewBox="0 0 72 67" fill="none" xmlns="http://www.w3.org/2000/svg">
<path d="M68.4119 18.7288L52.9696 3.28647C52.6879 3.00472 52.6879 2.54827 52.9696 2.26653C55.9916 -0.755509 60.8899 -0.755509 63.9119 2.26653L69.4318 7.78647C72.4539 10.8085 72.4539 15.7067 69.4318 18.7288C69.1501 19.0105 68.6936 19.0105 68.4119 18.7288Z" fill="white"/>
<path d="M19.3303 3.28647L3.88803 18.7288C3.60629 19.0105 3.14983 19.0105 2.86809 18.7288C-0.153947 15.7067 -0.153947 10.8085 2.86809 7.78647L8.38803 2.26653C11.4101 -0.755509 16.3083 -0.755509 19.3303 2.26653C19.6121 2.54827 19.6121 3.00472 19.3303 3.28647Z" fill="white"/>
<path d="M35.4084 6.55957C18.8769 6.55957 5.47607 19.9604 5.47607 36.4919C5.47607 53.0234 18.8769 66.4242 35.4084 66.4242C51.9399 66.4242 65.3407 53.0234 65.3407 36.4919C65.3407 19.9604 51.9399 6.55957 35.4084 6.55957ZM35.4084 61.2537C21.7337 61.2537 10.6466 50.1682 10.6466 36.4919C10.6466 22.8156 21.7321 11.7317 35.4084 11.7317C49.0847 11.7317 60.1702 22.8172 60.1702 36.4935C60.1702 50.1698 49.0847 61.2553 35.4084 61.2553V61.2537Z" fill="white"/>
<path d="M35.4083 15.8926C24.0316 15.8926 14.8081 25.1161 14.8081 36.4928C14.8081 47.8695 24.0316 57.093 35.4083 57.093C46.785 57.093 56.0085 47.8695 56.0085 36.4928C56.0085 25.1161 46.785 15.8926 35.4083 15.8926ZM47.4729 49.1869C46.7032 49.9566 45.455 49.9566 44.6853 49.1869L34.0594 38.561C33.6644 38.1659 33.4739 37.645 33.4834 37.1271C33.4834 37.1145 33.4818 37.1019 33.4818 37.0893V22.061C33.4818 20.9718 34.3648 20.0904 35.4524 20.0904C36.54 20.0904 37.423 20.9734 37.423 22.061V36.3511L47.4729 46.401C48.2425 47.1707 48.2425 48.4188 47.4729 49.1885V49.1869Z" fill="white"/>
</svg>
