<svg width="1512" height="945" viewBox="0 0 1512 945" fill="none" xmlns="http://www.w3.org/2000/svg">
<mask id="mask0_412_407" style="mask-type:alpha" maskUnits="userSpaceOnUse" x="0" y="0" width="1512" height="945">
<rect width="1512" height="945" fill="#D9D9D9"/>
</mask>
<g mask="url(#mask0_412_407)">
<path d="M-472.33 93.6173L191 88.1299L504.402 344.159L-0.849154 1289.51L-472.33 93.6173Z" fill="url(#paint0_linear_412_407)"/>
<path d="M-497.097 9.15782L205.902 51.1581L440.903 237.658L-56.9275 1046.29L-497.097 9.15782Z" fill="url(#paint1_linear_412_407)"/>
<path d="M2386.4 5.96973L1296.4 109.969L972.903 497.469L1315.9 1392.97L2386.4 5.96973Z" fill="url(#paint2_linear_412_407)"/>
<path d="M1993.37 -9.94486L1285.62 66.8432L1011.17 350.608L1687.34 1012.31L1993.37 -9.94486Z" fill="url(#paint3_linear_412_407)"/>
</g>
<defs>
<linearGradient id="paint0_linear_412_407" x1="371.909" y1="65.1553" x2="-97.4207" y2="631.143" gradientUnits="userSpaceOnUse">
<stop stop-color="#05FF00" stop-opacity="0.2"/>
<stop offset="1" stop-color="#05FF00" stop-opacity="0"/>
</linearGradient>
<linearGradient id="paint1_linear_412_407" x1="327.977" y1="7.58829" x2="-107.466" y2="600.043" gradientUnits="userSpaceOnUse">
<stop stop-color="#05FF00" stop-opacity="0.2"/>
<stop offset="1" stop-color="#05FF00" stop-opacity="0"/>
</linearGradient>
<linearGradient id="paint2_linear_412_407" x1="1101.43" y1="112.576" x2="1654.15" y2="605.027" gradientUnits="userSpaceOnUse">
<stop stop-color="#05FF00" stop-opacity="0.2"/>
<stop offset="1" stop-color="#05FF00" stop-opacity="0"/>
</linearGradient>
<linearGradient id="paint3_linear_412_407" x1="1136.44" y1="48.664" x2="1659.05" y2="571.955" gradientUnits="userSpaceOnUse">
<stop stop-color="#05FF00" stop-opacity="0.2"/>
<stop offset="1" stop-color="#05FF00" stop-opacity="0"/>
</linearGradient>
</defs>
</svg>
