<svg width="36" height="36" viewBox="0 0 36 36" fill="none" xmlns="http://www.w3.org/2000/svg">
<path d="M18.0013 0C8.0593 0 0 8.10856 0 18.1113C0 27.151 6.58298 34.6435 15.1884 36.0026V23.347H10.6177V18.112H15.1884V14.1219C15.1884 9.58302 17.8757 7.07554 21.9874 7.07554C22.6644 7.07554 23.3523 7.11765 23.9632 7.17199C24.352 7.20662 24.7098 7.24737 25.0143 7.28541C25.1013 7.29627 25.1837 7.30714 25.2613 7.31733C25.7271 7.37981 26.0167 7.42939 26.0167 7.42939V11.8868H23.7465C23.6068 11.8868 23.4731 11.8922 23.3449 11.9031C23.2166 11.9139 23.0951 11.9295 22.9783 11.9499C22.8616 11.9703 22.7509 11.9954 22.6455 12.0253C21.2732 12.4117 20.8128 13.5514 20.8128 14.7155V18.1127H25.8054L25.0075 23.3477H20.8128V36.0032C29.4182 34.6442 36.0012 27.1517 36.0012 18.112C36.0019 8.10856 27.9426 0 18.0013 0Z" fill="white"/>
</svg>
