<svg width="225" height="4128" viewBox="0 0 225 4128" fill="none" xmlns="http://www.w3.org/2000/svg">
<path d="M3 0.0624873L221.182 0.0624968L221.182 153.472L173.455 153.472L173.455 59.2955L135.955 59.2954L135.955 144.097L88.2273 144.097L88.2273 59.2954L3 59.2954L3 0.0624873ZM2.99999 225.688L2.99999 161.767L221.182 233.784L221.182 314.75L2.99998 386.767L2.99999 322.847L161.097 275.12L161.097 273.415L2.99999 225.688ZM89.0795 213.756L89.0795 333.926L44.7613 333.926L44.7614 213.756L89.0795 213.756ZM2.99998 512.73L2.99998 428.781L221.182 428.781L221.182 511.878C221.182 534.321 216.814 553.71 208.078 570.045C199.413 586.452 186.913 599.094 170.578 607.972C154.314 616.92 134.818 621.395 112.091 621.395C89.3636 621.395 69.8324 616.956 53.4971 608.078C37.2329 599.2 24.7329 586.629 15.9971 570.365C7.33236 554.101 2.99998 534.889 2.99998 512.73ZM53.2841 488.014L53.2841 510.599C53.2841 521.395 55.0241 530.592 58.5042 538.192C61.9844 545.862 67.9858 551.686 76.5085 555.663C85.0312 559.712 96.892 561.736 112.091 561.736C127.29 561.736 139.151 559.676 147.673 555.557C156.196 551.509 162.197 545.543 165.678 537.659C169.158 529.847 170.898 520.259 170.898 508.895L170.898 488.014L53.2841 488.014ZM2.99997 669.801L221.182 669.801L221.182 827.045L173.455 827.045L173.455 729.034L135.955 729.034L135.955 818.949L88.2272 818.949L88.2272 729.034L50.7272 729.034L50.7272 826.619L2.99996 826.619L2.99997 669.801ZM2.99996 961.371L2.99996 877.422L221.182 877.422L221.182 960.518C221.182 982.962 216.814 1002.35 208.078 1018.69C199.413 1035.09 186.913 1047.73 170.578 1056.61C154.314 1065.56 134.818 1070.04 112.091 1070.04C89.3636 1070.04 69.8323 1065.6 53.4971 1056.72C37.2329 1047.84 24.7329 1035.27 15.9971 1019.01C7.33234 1002.74 2.99996 983.53 2.99996 961.371ZM53.2841 936.655L53.284 959.24C53.284 970.036 55.0241 979.233 58.5042 986.832C61.9843 994.503 67.9858 1000.33 76.5085 1004.3C85.0312 1008.35 96.892 1010.38 112.091 1010.38C127.29 1010.38 139.151 1008.32 147.673 1004.2C156.196 1000.15 162.197 994.183 165.678 986.3C169.158 978.487 170.898 968.899 170.898 957.536L170.898 936.655L53.2841 936.655ZM2.99995 1118.44L221.182 1118.44L221.182 1177.67L50.7272 1177.67L50.7272 1265.88L2.99994 1265.88L2.99995 1118.44ZM221.182 1370.06L2.99994 1370.06L2.99994 1310.83L221.182 1310.83L221.182 1370.06ZM221.182 1607.91L2.99993 1607.91L2.99993 1558.48L117.631 1479.64L117.631 1478.37L2.99993 1478.37L2.99994 1419.13L221.182 1419.13L221.182 1469.42L106.977 1546.97L106.977 1548.68L221.182 1548.68L221.182 1607.91ZM2.99993 1656.93L221.182 1656.93L221.182 1814.17L173.454 1814.17L173.454 1716.16L135.954 1716.16L135.954 1806.08L88.2272 1806.08L88.2272 1716.16L50.7272 1716.16L50.7272 1813.75L2.99992 1813.75L2.99993 1656.93ZM153 1982.16C160.102 1981.6 165.642 1978.93 169.619 1974.17C173.597 1969.49 175.585 1962.35 175.585 1952.76C175.585 1946.65 174.839 1941.65 173.348 1937.74C171.927 1933.9 169.974 1931.06 167.489 1929.22C165.003 1927.37 162.162 1926.41 158.966 1926.34C156.338 1926.2 153.959 1926.66 151.828 1927.73C149.768 1928.86 147.886 1930.64 146.182 1933.05C144.548 1935.47 143.057 1938.56 141.707 1942.32C140.358 1946.08 139.15 1950.56 138.085 1955.74L134.25 1973.64C131.693 1985.72 128.32 1996.05 124.129 2004.64C119.939 2013.24 115.003 2020.27 109.321 2025.74C103.71 2031.21 97.3891 2035.22 90.3579 2037.78C83.3266 2040.4 75.6562 2041.75 67.3465 2041.82C52.9999 2041.75 40.855 2038.17 30.9118 2031.06C20.9687 2023.96 13.4047 2013.81 8.22008 2000.59C3.03542 1987.46 0.443095 1971.65 0.443096 1953.19C0.443097 1934.22 3.2485 1917.68 8.85929 1903.54C14.4701 1889.48 23.0994 1878.54 34.7471 1870.73C46.4658 1862.99 61.4516 1859.08 79.7045 1859.01L79.7045 1915.26C73.0283 1915.62 67.4175 1917.29 62.8721 1920.27C58.3266 1923.25 54.882 1927.44 52.5383 1932.84C50.1945 1938.31 49.0226 1944.81 49.0226 1952.33C49.0226 1958.66 49.8039 1963.95 51.3664 1968.21C52.9289 1972.47 55.0951 1975.7 57.865 1977.9C60.6349 1980.1 63.7954 1981.24 67.3465 1981.31C70.6846 1981.24 73.5965 1980.14 76.0823 1978.01C78.6391 1975.95 80.9119 1972.54 82.9005 1967.78C84.9601 1963.02 86.8778 1956.6 88.6533 1948.5L93.3408 1926.77C97.5312 1907.45 104.527 1892.21 114.328 1881.06C124.2 1869.98 137.659 1864.48 154.704 1864.55C168.554 1864.48 180.663 1868.17 191.033 1875.63C201.473 1883.16 209.605 1893.56 215.429 1906.84C221.253 1920.2 224.165 1935.5 224.165 1952.76C224.165 1970.37 221.217 1985.61 215.322 1998.46C209.427 2011.32 201.118 2021.23 190.393 2028.19C179.74 2035.22 167.275 2038.77 153 2038.84L153 1982.16ZM2.99991 2085.36L221.182 2085.36L221.182 2238.76L173.454 2238.76L173.454 2144.59L135.954 2144.59L135.954 2229.39L88.2272 2229.39L88.2272 2144.59L2.99991 2144.59L2.99991 2085.36ZM2.9999 2310.98L2.9999 2247.06L221.182 2319.08L221.182 2400.04L2.99989 2472.06L2.99989 2408.14L161.096 2360.41L161.096 2358.71L2.9999 2310.98ZM89.0794 2299.05L89.0794 2419.22L44.7613 2419.22L44.7613 2299.05L89.0794 2299.05ZM2.99989 2598.02L2.99989 2514.07L221.182 2514.07L221.182 2597.17C221.182 2619.61 216.814 2639 208.078 2655.34C199.413 2671.74 186.913 2684.39 170.578 2693.26C154.314 2702.21 134.818 2706.69 112.091 2706.69C89.3635 2706.69 69.8323 2702.25 53.497 2693.37C37.2328 2684.49 24.7328 2671.92 15.997 2655.66C7.33227 2639.39 2.99988 2620.18 2.99989 2598.02ZM53.284 2573.31L53.284 2595.89C53.284 2606.69 55.024 2615.89 58.5041 2623.48C61.9843 2631.16 67.9857 2636.98 76.5084 2640.96C85.0311 2645 96.8919 2647.03 112.091 2647.03C127.29 2647.03 139.15 2644.97 147.673 2640.85C156.196 2636.8 162.197 2630.84 165.677 2622.95C169.158 2615.14 170.898 2605.55 170.898 2594.19L170.898 2573.31L53.284 2573.31ZM2.99988 2755.09L221.182 2755.09L221.182 2912.34L173.454 2912.34L173.454 2814.33L135.954 2814.33L135.954 2904.24L88.2271 2904.24L88.2271 2814.33L50.7271 2814.33L50.7271 2911.91L2.99987 2911.91L2.99988 2755.09ZM2.99987 3046.66L2.99987 2962.71L221.182 2962.71L221.182 3045.81C221.182 3068.25 216.814 3087.64 208.078 3103.98C199.413 3120.39 186.913 3133.03 170.578 3141.91C154.314 3150.85 134.818 3155.33 112.091 3155.33C89.3635 3155.33 69.8322 3150.89 53.497 3142.01C37.2328 3133.13 24.7328 3120.56 15.997 3104.3C7.33225 3088.03 2.99987 3068.82 2.99987 3046.66ZM53.284 3021.95L53.284 3044.53C53.284 3055.33 55.024 3064.53 58.5041 3072.13C61.9842 3079.8 67.9857 3085.62 76.5084 3089.6C85.0311 3093.65 96.8919 3095.67 112.091 3095.67C127.29 3095.67 139.15 3093.61 147.673 3089.49C156.196 3085.44 162.197 3079.48 165.677 3071.59C169.158 3063.78 170.898 3054.19 170.898 3042.83L170.898 3021.95L53.284 3021.95ZM2.99986 3203.73L221.182 3203.73L221.182 3262.97L50.7271 3262.97L50.7271 3351.18L2.99985 3351.18L2.99986 3203.73ZM221.182 3455.35L2.99985 3455.35L2.99985 3396.12L221.182 3396.12L221.182 3455.35ZM221.182 3693.2L2.99984 3693.2L2.99984 3643.77L117.631 3564.94L117.631 3563.66L2.99984 3563.66L2.99985 3504.43L221.182 3504.43L221.182 3554.71L106.977 3632.27L106.977 3633.97L221.182 3633.97L221.182 3693.2ZM2.99984 3742.22L221.182 3742.22L221.182 3899.47L173.454 3899.47L173.454 3801.46L135.954 3801.46L135.954 3891.37L88.2271 3891.37L88.2271 3801.46L50.7271 3801.46L50.7271 3899.04L2.99983 3899.04L2.99984 3742.22ZM153 4067.46C160.102 4066.89 165.642 4064.23 169.619 4059.47C173.596 4054.78 175.585 4047.64 175.585 4038.05C175.585 4031.95 174.839 4026.94 173.348 4023.03C171.927 4019.2 169.974 4016.36 167.488 4014.51C165.003 4012.66 162.162 4011.7 158.966 4011.63C156.338 4011.49 153.959 4011.95 151.828 4013.02C149.768 4014.15 147.886 4015.93 146.182 4018.35C144.548 4020.76 143.057 4023.85 141.707 4027.61C140.358 4031.38 139.15 4035.85 138.085 4041.04L134.25 4058.93C131.693 4071.01 128.319 4081.34 124.129 4089.94C119.939 4098.53 115.003 4105.56 109.321 4111.03C103.71 4116.5 97.389 4120.51 90.3578 4123.07C83.3265 4125.7 75.6561 4127.05 67.3464 4127.12C52.9998 4127.05 40.8549 4123.46 30.9118 4116.36C20.9686 4109.25 13.4046 4099.1 8.21999 4085.89C3.03533 4072.75 0.443004 4056.95 0.443005 4038.48C0.443005 4019.52 3.2484 4002.97 8.8592 3988.84C14.47 3974.77 23.0993 3963.84 34.747 3956.02C46.4657 3948.28 61.4515 3944.37 79.7044 3944.3L79.7044 4000.55C73.0282 4000.91 67.4174 4002.58 62.872 4005.56C58.3265 4008.54 54.8819 4012.73 52.5382 4018.13C50.1944 4023.6 49.0226 4030.1 49.0226 4037.63C49.0226 4043.95 49.8038 4049.24 51.3663 4053.5C52.9288 4057.76 55.095 4060.99 57.8649 4063.2C60.6348 4065.4 63.7953 4066.53 67.3464 4066.61C70.6845 4066.53 73.5964 4065.43 76.0822 4063.3C78.639 4061.24 80.9118 4057.83 82.9004 4053.08C84.9601 4048.32 86.8777 4041.89 88.6532 4033.79L93.3407 4012.06C97.5311 3992.74 104.527 3977.51 114.328 3966.36C124.2 3955.28 137.659 3949.77 154.704 3949.84C168.554 3949.77 180.663 3953.47 191.032 3960.92C201.473 3968.45 209.605 3978.86 215.429 3992.14C221.253 4005.49 224.165 4020.8 224.165 4038.05C224.165 4055.67 221.217 4070.9 215.322 4083.76C209.427 4096.61 201.118 4106.52 190.393 4113.48C179.74 4120.51 167.275 4124.06 153 4124.13L153 4067.46Z" fill="url(#paint0_linear_284_1065)" fill-opacity="0.15"/>
<defs>
<linearGradient id="paint0_linear_284_1065" x1="266.683" y1="2120.39" x2="-528.002" y2="2683.43" gradientUnits="userSpaceOnUse">
<stop stop-color="#33FF00"/>
<stop offset="1" stop-color="#7AFF6E"/>
</linearGradient>
</defs>
</svg>
