<svg width="36" height="36" viewBox="0 0 36 36" fill="none" xmlns="http://www.w3.org/2000/svg">
<path d="M21.797 9.65234H13.803C11.2929 9.65234 9.25085 11.6944 9.25085 14.2045V22.1985C9.25085 24.7086 11.2929 26.7506 13.803 26.7506H21.797C24.3071 26.7506 26.3491 24.7086 26.3491 22.1985V14.2045C26.3491 11.6944 24.3071 9.65234 21.797 9.65234ZM17.8 23.4198C14.9226 23.4198 12.5817 21.0789 12.5817 18.2015C12.5817 15.3241 14.9226 12.9832 17.8 12.9832C20.6774 12.9832 23.0183 15.3241 23.0183 18.2015C23.0183 21.0789 20.6774 23.4198 17.8 23.4198ZM23.1293 14.0935C22.4561 14.0935 21.908 13.5454 21.908 12.8722C21.908 12.1989 22.4561 11.6508 23.1293 11.6508C23.8026 11.6508 24.3506 12.1989 24.3506 12.8722C24.3506 13.5454 23.8026 14.0935 23.1293 14.0935Z" fill="white"/>
<path d="M17.8 21.8649C19.8236 21.8649 21.4639 20.2246 21.4639 18.201C21.4639 16.1775 19.8236 14.5371 17.8 14.5371C15.7765 14.5371 14.1361 16.1775 14.1361 18.201C14.1361 20.2246 15.7765 21.8649 17.8 21.8649Z" fill="white"/>
<path d="M17.8 0.400391C7.96958 0.400391 0 8.36997 0 18.2004C0 28.0308 7.96958 36.0004 17.8 36.0004C27.6304 36.0004 35.6 28.0308 35.6 18.2004C35.6 8.36997 27.6308 0.400391 17.8 0.400391ZM27.9035 22.1974C27.9035 25.5646 25.1642 28.3039 21.797 28.3039H13.803C10.4357 28.3039 7.69645 25.5646 7.69645 22.1974V14.2034C7.69645 10.8361 10.4357 8.09684 13.803 8.09684H21.797C25.1642 8.09684 27.9035 10.8361 27.9035 14.2034V22.1974Z" fill="white"/>
</svg>
