<svg width="78" height="78" viewBox="0 0 78 78" fill="none" xmlns="http://www.w3.org/2000/svg">
<g filter="url(#filter0_d_566_433)">
<circle cx="39" cy="35" r="24" fill="white"/>
</g>
<path d="M23 33C21.8954 33 21 33.8954 21 35C21 36.1046 21.8954 37 23 37V33ZM56.4142 36.4142C57.1953 35.6332 57.1953 34.3668 56.4142 33.5858L43.6863 20.8579C42.9052 20.0768 41.6389 20.0768 40.8579 20.8579C40.0768 21.6389 40.0768 22.9052 40.8579 23.6863L52.1716 35L40.8579 46.3137C40.0768 47.0948 40.0768 48.3611 40.8579 49.1421C41.6389 49.9232 42.9052 49.9232 43.6863 49.1421L56.4142 36.4142ZM23 37L55 37V33L23 33V37Z" fill="url(#paint0_linear_566_433)"/>
<defs>
<filter id="filter0_d_566_433" x="0" y="0" width="78" height="78" filterUnits="userSpaceOnUse" color-interpolation-filters="sRGB">
<feFlood flood-opacity="0" result="BackgroundImageFix"/>
<feColorMatrix in="SourceAlpha" type="matrix" values="0 0 0 0 0 0 0 0 0 0 0 0 0 0 0 0 0 0 127 0" result="hardAlpha"/>
<feOffset dy="4"/>
<feGaussianBlur stdDeviation="7.5"/>
<feComposite in2="hardAlpha" operator="out"/>
<feColorMatrix type="matrix" values="0 0 0 0 0 0 0 0 0 0 0 0 0 0 0 0 0 0 0.25 0"/>
<feBlend mode="normal" in2="BackgroundImageFix" result="effect1_dropShadow_566_433"/>
<feBlend mode="normal" in="SourceGraphic" in2="effect1_dropShadow_566_433" result="shape"/>
</filter>
<linearGradient id="paint0_linear_566_433" x1="55" y1="35.5" x2="23" y2="35.5" gradientUnits="userSpaceOnUse">
<stop stop-color="#00FF0A"/>
<stop offset="1" stop-color="#16A613"/>
</linearGradient>
</defs>
</svg>
