<svg width="78" height="78" viewBox="0 0 78 78" fill="none" xmlns="http://www.w3.org/2000/svg">
<g filter="url(#filter0_d_566_432)">
<circle cx="39" cy="35" r="24" fill="white"/>
</g>
<path d="M55 37C56.1046 37 57 36.1046 57 35C57 33.8954 56.1046 33 55 33L55 37ZM21.5858 33.5858C20.8047 34.3668 20.8047 35.6332 21.5858 36.4142L34.3137 49.1421C35.0948 49.9232 36.3611 49.9232 37.1421 49.1421C37.9232 48.3611 37.9232 47.0948 37.1421 46.3137L25.8284 35L37.1421 23.6863C37.9232 22.9052 37.9232 21.6389 37.1421 20.8579C36.3611 20.0768 35.0948 20.0768 34.3137 20.8579L21.5858 33.5858ZM55 33L23 33L23 37L55 37L55 33Z" fill="url(#paint0_linear_566_432)"/>
<defs>
<filter id="filter0_d_566_432" x="0" y="0" width="78" height="78" filterUnits="userSpaceOnUse" color-interpolation-filters="sRGB">
<feFlood flood-opacity="0" result="BackgroundImageFix"/>
<feColorMatrix in="SourceAlpha" type="matrix" values="0 0 0 0 0 0 0 0 0 0 0 0 0 0 0 0 0 0 127 0" result="hardAlpha"/>
<feOffset dy="4"/>
<feGaussianBlur stdDeviation="7.5"/>
<feComposite in2="hardAlpha" operator="out"/>
<feColorMatrix type="matrix" values="0 0 0 0 0 0 0 0 0 0 0 0 0 0 0 0 0 0 0.25 0"/>
<feBlend mode="normal" in2="BackgroundImageFix" result="effect1_dropShadow_566_432"/>
<feBlend mode="normal" in="SourceGraphic" in2="effect1_dropShadow_566_432" result="shape"/>
</filter>
<linearGradient id="paint0_linear_566_432" x1="23" y1="34.5" x2="55" y2="34.5" gradientUnits="userSpaceOnUse">
<stop stop-color="#00FF0A"/>
<stop offset="1" stop-color="#16A613"/>
</linearGradient>
</defs>
</svg>
