<svg width="36" height="36" viewBox="0 0 36 36" fill="none" xmlns="http://www.w3.org/2000/svg">
<rect width="36" height="36" rx="18" fill="white"/>
<path d="M24.6617 11.7091C23.4882 10.9716 22.6415 9.79118 22.3772 8.41598C22.3202 8.11894 22.2885 7.81293 22.2885 7.5H18.543L18.5367 21.9687C18.4741 23.5892 17.0905 24.8894 15.3944 24.8894C14.8673 24.8894 14.371 24.7627 13.9339 24.5406C12.9316 24.0325 12.2455 23.02 12.2455 21.855C12.2455 20.1816 13.6583 18.8198 15.394 18.8198C15.7183 18.8198 16.029 18.8716 16.3228 18.96V15.2745C16.0184 15.2341 15.7094 15.2097 15.394 15.2097C11.5928 15.2097 8.5 18.1903 8.5 21.855C8.5 24.103 9.66507 26.0927 11.4435 27.2955C12.5629 28.0538 13.9254 28.5 15.3944 28.5C19.1961 28.5 22.2885 25.519 22.2885 21.855V14.5178C23.7575 15.534 25.5575 16.133 27.5 16.133V12.5224C26.4537 12.5224 25.4793 12.2229 24.6617 11.7091Z" fill="black"/>
</svg>
