<svg width="36" height="36" viewBox="0 0 36 36" fill="none" xmlns="http://www.w3.org/2000/svg">
<path d="M18 0C8.05889 0 0 8.05889 0 18C0 27.9411 8.05889 36 18 36C27.9411 36 36 27.9411 36 18C36 8.05889 27.9411 0 18 0ZM17.8892 27.5857C16.2846 27.5857 14.6992 27.19 13.2964 26.4405L8.17019 28.0695C8.14477 28.0776 8.11856 28.0815 8.09262 28.0815C8.02491 28.0815 7.95849 28.0545 7.90946 28.0047C7.84174 27.9357 7.81865 27.8342 7.84953 27.7426L9.51615 22.8266C8.64548 21.355 8.18576 19.6739 8.18576 17.9564C8.18576 12.6463 12.5386 8.32611 17.889 8.32611C23.2393 8.32611 27.5914 12.6463 27.5914 17.9564C27.5914 23.2666 23.2391 27.5857 17.889 27.5857H17.8892Z" fill="white"/>
<path d="M17.8891 10.332C13.6512 10.332 10.2032 13.7522 10.2032 17.9564C10.2032 19.5721 10.7091 21.1176 11.6665 22.4254C11.7158 22.4929 11.7293 22.5803 11.7025 22.6594L10.8736 25.1052L13.4415 24.289C13.467 24.2809 13.4932 24.277 13.5194 24.277C13.5687 24.277 13.6177 24.2913 13.66 24.3191C14.917 25.1438 16.3794 25.5799 17.8893 25.5799C22.1267 25.5799 25.5744 22.1603 25.5741 17.9566C25.5741 13.7527 22.1267 10.3323 17.8893 10.3323L17.8891 10.332ZM22.7647 21.2943C22.5239 21.9636 21.4649 22.5123 20.9831 22.5549L20.9125 22.5616C20.8013 22.5725 20.6749 22.585 20.5172 22.585C20.1418 22.585 19.4812 22.5206 18.0865 21.9634C16.6378 21.3846 15.2086 20.1439 14.0621 18.4695C14.0424 18.4405 14.0286 18.4202 14.0211 18.4104C13.7217 18.0158 13.0246 16.9785 13.0246 15.8798C13.0246 14.6592 13.6089 13.9649 13.9544 13.7473C14.28 13.542 15.0168 13.445 15.152 13.4393C15.263 13.4346 15.2366 13.4346 15.263 13.4346C15.5484 13.4346 15.7539 13.6079 15.9096 13.98C15.9742 14.1341 16.5823 15.602 16.6165 15.6699C16.658 15.7514 16.7865 16.0033 16.636 16.3022L16.6038 16.3671C16.5423 16.4918 16.4891 16.5995 16.3698 16.7383C16.3314 16.7827 16.2925 16.8296 16.2536 16.8763C16.1713 16.9752 16.0862 17.0777 16.0079 17.1552C15.9812 17.1822 15.929 17.2341 15.9236 17.2548C15.9236 17.2548 15.9246 17.2725 15.9477 17.3117C16.1086 17.5838 17.2812 19.1978 18.8262 19.8687C18.8936 19.898 19.1165 19.9898 19.1294 19.9898C19.1437 19.9898 19.1678 19.966 19.1855 19.9457C19.3201 19.7937 19.7555 19.2847 19.8994 19.0706C20.0268 18.8802 20.19 18.7835 20.3846 18.7835C20.5037 18.7835 20.6155 18.82 20.72 18.8577C20.9759 18.9498 22.4162 19.6591 22.4546 19.6775C22.6433 19.768 22.7922 19.8396 22.8788 19.9818C23.0052 20.1909 22.9551 20.7668 22.7652 21.294L22.7647 21.2943Z" fill="white"/>
</svg>
