<svg width="36" height="36" viewBox="0 0 36 36" fill="none" xmlns="http://www.w3.org/2000/svg">
<path d="M18.1694 16.5691L13.5953 10.1738H11.16L16.8247 18.0938L17.5342 19.0891L22.3836 25.8868H24.8294L18.8789 17.5644L18.1694 16.5691Z" fill="white"/>
<path d="M18 0C8.05765 0 0 8.05765 0 18C0 27.9424 8.05765 36 18 36C27.9424 36 36 27.9424 36 18C36 8.05765 27.9424 0 18 0ZM21.6424 27L16.7294 20.0118L10.5882 27H9L16.0306 19.0059L9 9H14.3576L19.0059 15.6176L24.8294 9H26.4176L19.7153 16.6235L27 27H21.6424Z" fill="white"/>
</svg>
