<svg width="36" height="36" viewBox="0 0 36 36" fill="none" xmlns="http://www.w3.org/2000/svg">
<rect width="36" height="36" rx="18" fill="white"/>
<path fill-rule="evenodd" clip-rule="evenodd" d="M27.3061 14.073C27.3061 14.073 27.1206 12.7189 26.5498 12.1243C25.8264 11.3423 25.0164 11.3372 24.6461 11.2919C21.9894 11.0918 17.9991 11.0918 17.9991 11.0918H17.9921C17.9921 11.0918 14.0036 11.0918 11.3454 11.2919C10.9737 11.3387 10.1648 11.342 9.44179 12.1243C8.87061 12.7189 8.68899 14.073 8.68899 14.073C8.68899 14.073 8.5 15.6621 8.5 17.2544V18.7434C8.5 20.3324 8.68899 21.9248 8.68899 21.9248C8.68899 21.9248 8.87447 23.2789 9.44179 23.8745C10.1648 24.6566 11.115 24.6312 11.5393 24.7146C13.0604 24.8647 18.0005 24.91 18.0005 24.91C18.0005 24.91 21.9943 24.9027 24.651 24.7062C25.0227 24.6609 25.8313 24.6562 26.5546 23.8738C27.1258 23.2792 27.311 21.9237 27.311 21.9237C27.311 21.9237 27.5 20.3346 27.5 18.7423V17.2533C27.4961 15.6642 27.3071 14.072 27.3071 14.072L27.3061 14.073ZM16.031 20.55V15.0287L21.1636 17.7986L16.031 20.55Z" fill="black"/>
</svg>
