<svg width="1440" height="776" viewBox="0 0 1440 776" fill="none" xmlns="http://www.w3.org/2000/svg">
<path d="M-80.3208 686.738C-74.8949 732.524 -25.5529 771.016 15.4463 774.745C64.6498 779.224 101.354 747.867 135.592 725.047C215.346 671.896 289.239 611.106 356.445 543.304C386.642 512.843 418.138 481.017 428.774 434.66C437.967 394.61 426.941 341.266 392.441 300.914C361.167 264.335 316.168 248.713 279.471 253.504C241.157 258.508 212.065 281.278 198.068 315.867C183.182 352.645 183.219 399.574 200.797 445.741C219.865 495.834 258.119 543.883 303.93 574.67C387.704 630.961 473.268 619.25 539.958 590.229C579.749 572.908 616.108 549.807 651.432 526.137C690.85 499.732 728.458 471.014 765.097 441.198C838.588 381.398 908.226 317.171 981.739 257.396C1109.83 153.248 1255.51 59.5677 1437.39 41.0908C1459.2 38.8723 1481.43 37.8053 1503.98 37.8091C1526.16 37.8075 1513.4 0.599383 1491.36 0.598106C1315.11 0.586421 1167.42 70.6668 1040.45 160.174C898.563 260.188 779.612 387.476 636.567 486.103C603.377 508.984 569.163 531.006 532.251 548.725C502.698 562.916 470.829 574.395 435.393 577.112C401.479 579.712 364.542 573.533 328.817 553.174C288.733 530.325 252.75 489.492 235.759 446.912C206.143 372.709 230.562 290.754 303.704 289.897C335.846 289.526 369.288 310.819 385.324 346.139C404.615 388.636 394.616 427.486 376.462 456.448C354.286 491.836 321.817 519.68 292.043 547.636C259.583 578.101 225.697 607.023 190.474 634.323C155.25 661.623 118.683 687.306 80.8557 711.307C56.1889 726.964 21.6546 751.881 -16.5131 729.732C-29.7904 722.029 -42.7185 708.989 -44.4576 694.34C-47.2478 670.774 -83.106 663.123 -80.3162 686.734L-80.3208 686.738Z" fill="#14FF00" fill-opacity="0.2"/>
</svg>
